<svg id="Capa_5" data-name="Capa 5" xmlns="http://www.w3.org/2000/svg" viewBox="0 0 267.77 89.56"><defs><style>.cls-1{fill:#fff;}.cls-2,.cls-4{fill:#e7354f;}.cls-3{fill:#e73348;stroke:#d3d92c;stroke-width:5px;}.cls-3,.cls-4{stroke-miterlimit:10;}.cls-4{stroke:#e73550;}.cls-5{fill:#d2d92e;}</style></defs><path class="cls-1" d="M46.87,79.2a2.71,2.71,0,0,1,1-1.25,1.5,1.5,0,0,1,1.1-.23,1.08,1.08,0,0,1,.73.75,2.52,2.52,0,0,1-.19,1.71,20.23,20.23,0,0,1-1.22,2.42c-.57,1-1.22,2-1.95,3a33.86,33.86,0,0,1-2.38,3,15.14,15.14,0,0,1-2.39,2.21,3.48,3.48,0,0,1-1.27.75,6.63,6.63,0,0,1-2.16,0c-1-.09-2.08-.22-3.32-.39s-2.57-.36-4-.55-2.86-.32-4.25-.39a33.18,33.18,0,0,0-4,0,10.38,10.38,0,0,0-3.32.68,1.52,1.52,0,0,1-1.43,0,1.59,1.59,0,0,1-.73-1,2.18,2.18,0,0,1,.21-1.39,2.34,2.34,0,0,1,1.34-1.11c.72-.28,1.45-.54,2.19-.79s1.46-.47,2.18-.66a3.69,3.69,0,0,1,.05-.66,35.62,35.62,0,0,1,1.46-6.11c.72-2.22,1.55-4.49,2.51-6.79s2-4.58,3-6.82,2.06-4.27,3-6.11S34.8,56,35.47,54.76s1.11-2.15,1.3-2.59a1.35,1.35,0,0,1,1.1-.91,3.33,3.33,0,0,1,1.69.23,8.13,8.13,0,0,1,1.88,1.08,10,10,0,0,1,1.69,1.62,6.94,6.94,0,0,1,1.11,1.86,2.8,2.8,0,0,1,.14,1.81A11.29,11.29,0,0,1,43,60.28c-.79,1.17-1.75,2.57-2.89,4.18l-3.76,5.27C35,71.62,33.7,73.5,32.44,75.37S30.06,79,29.06,80.68A24.78,24.78,0,0,0,26.9,85a49.1,49.1,0,0,1,5.28-.73q2.57-.21,4.68-.24c1.41,0,2.64,0,3.69.1s1.86.16,2.42.25l.05,0a1.85,1.85,0,0,0,1-.57,8.23,8.23,0,0,0,1.23-1.52A25.75,25.75,0,0,0,46.87,79.2Z" transform="translate(-12.92 -16.37)"/><path class="cls-1" d="M50.11,81.09l-.1.24-3.65-1,.73.75L46,78.47c.23,2.41-3.13,5.78-4.64,7.48-2.36,2.65-3.92,1.84-7.43,1.37-2.44-.32-4.87-.68-7.33-.8-3-.16-5.85.72-8.74.63L21.09,89l-.73-1,.38,2.89c.11-.73,2.59-1.13,3.3-1.33a3.86,3.86,0,0,0,2.75-3.61c.47-6.57,4.15-13.48,6.93-19.3C35,64,36.28,61.38,37.61,58.78c.56-1.09,1.15-2.17,1.69-3.27.35-.71,1.14-1.31.46-1l-2.89.38c4,.56,3.84,2.16,2.07,4.76-1.88,2.78-3.87,5.48-5.81,8.2C29.46,73,25.69,78.16,23.28,84c-1.2,2.93,2.16,5,4.61,4.61a57.44,57.44,0,0,1,9-.83c2.07,0,4.61.65,6.61.29,3.41-.63,5.25-4.14,6.64-7,2.09-4.33-4.37-8.13-6.48-3.79a14.38,14.38,0,0,1-3.31,4.46L43,80.66a57.2,57.2,0,0,0-17.07.75L30.51,86c3.58-8.73,10.69-16,15.75-23.85,3.47-5.4,1-11.9-5.25-14.11-7.34-2.59-9.75,6.58-12.24,11.64-4,8-8.83,17.13-9.48,26.22l2.76-3.62c-2.61.73-6.1,1.47-7.66,3.91a5.67,5.67,0,0,0,1.19,7.64c2.87,2.09,7.66,0,11,.17,4.08.2,8.15,1.34,12.22,1.36,6.45.05,12.61-8.64,14.36-14.2,2.1-6.71-6.06-9.49-9.54-3.88C41.08,81.42,47.57,85.19,50.11,81.09Z" transform="translate(-12.92 -16.37)"/><path class="cls-1" d="M61.86,73.56a1.83,1.83,0,0,1,1.51-1,4.36,4.36,0,0,1,2.18.29,4.14,4.14,0,0,1,1.81,1.31,2.36,2.36,0,0,1,.38,2.16,10.3,10.3,0,0,1-.85,2c-.4.77-.85,1.55-1.34,2.35L64.12,83A21.74,21.74,0,0,0,63,85.1a3.46,3.46,0,0,0-.4,1.43c0,.34.26.5.73.47a3.79,3.79,0,0,0,2.09-.92,11.43,11.43,0,0,0,1.91-2,18.8,18.8,0,0,0,1.59-2.49A24.21,24.21,0,0,0,70,79.24a3.06,3.06,0,0,1,1.11-1.41,1.3,1.3,0,0,1,1.15-.18,1.16,1.16,0,0,1,.7.89,3.1,3.1,0,0,1-.28,1.88,21.92,21.92,0,0,1-1.34,2.87,20.42,20.42,0,0,1-2.21,3.24,13.55,13.55,0,0,1-3,2.65,6.44,6.44,0,0,1-3.64,1.11,2.91,2.91,0,0,1-2.8-1.43A7.48,7.48,0,0,1,59,85.31a14.24,14.24,0,0,1-3.08,3.48A5.48,5.48,0,0,1,52,90a5.9,5.9,0,0,1-3.76-1.51,6.32,6.32,0,0,1-1.81-3.29,10.7,10.7,0,0,1,0-4.37,16.26,16.26,0,0,1,1.69-4.74,19.51,19.51,0,0,1,3.24-4.42A15.9,15.9,0,0,1,56,68.34a17.27,17.27,0,0,1,6-1.55,18.39,18.39,0,0,1,7.17.94,2.5,2.5,0,0,1,1.34.92,1.67,1.67,0,0,1,.37,1.19,1.16,1.16,0,0,1-.7.9,2.88,2.88,0,0,1-1.9,0,9.88,9.88,0,0,0-4.14-.14A11.64,11.64,0,0,0,60.43,72a14.06,14.06,0,0,0-3.13,2.44,22.23,22.23,0,0,0-2.49,3.06,17.94,17.94,0,0,0-1.74,3.19,13.72,13.72,0,0,0-.86,2.94,5.11,5.11,0,0,0,0,2.23,1.33,1.33,0,0,0,1.11,1,2.32,2.32,0,0,0,1.92-.57,9.66,9.66,0,0,0,1.84-2,21.14,21.14,0,0,0,1.67-2.89c.51-1.08,1-2.12,1.38-3.13s.57-1.92.87-2.77A15,15,0,0,1,61.86,73.56Z" transform="translate(-12.92 -16.37)"/><path class="cls-1" d="M64.52,76.21c-.48.57-1.29,1-1.86,1.93s-1.2,2-1.78,3A12.83,12.83,0,0,0,59,85.53a4,4,0,0,0,1.72,4.24c2.53,1.63,5.15.8,7.36-1,1.31-1.08,4.66-7.37,5.23-7.47l-3.64-1,.7.89-1.1-2.65c0,1.85-2,4.57-3.18,5.83a5.59,5.59,0,0,1-2.63,1.87c-1.14.3-.54,1.41-.69-.93a3.79,3.79,0,0,0-7-1.9c-.72,1-2.83,3.27-4.3,2.73-2-.74-1.59-3.34-1.31-4.82a14,14,0,0,1,3.81-7,13.11,13.11,0,0,1,5.86-3.4c.64-.17,7.15-1,7.43-.09l1-3.65a39.57,39.57,0,0,0-6.37.16,16.64,16.64,0,0,0-6.21,3.53c-3.83,3.37-7.72,9.17-7.2,14.49a5.44,5.44,0,0,0,8.27,4.47c5.2-2.74,6.17-9.6,8.4-14.39,2-4.35-4.44-8.16-6.47-3.79-1.08,2.31-1.69,4.77-2.72,7.08-.73,1.67-3.56,3.91-1.06,4.28,2.3.34,2.07-2,3.2-3.62,1.57-2.28,3.78-4.47,6.59-5,2.15-.39,4.41.73,6.52-.06a5.2,5.2,0,0,0,1.42-8.9c-3.18-2.82-9.3-2.81-13.21-2.07C49.88,65.16,41.19,74.8,42.56,84.85c.59,4.31,3.31,7.73,7.65,8.65,5.4,1.15,9.1-2.19,12-6.3l-7-1.89C56.5,104.69,83.67,86,75,75c-.86-1.09-2.42-1.16-3.65-1-5.38.88-4.33,8.15-9,9.35l2.89.38-.72-.47,1.72,4.24c.72-5,7.17-8.67,4.84-14.31-1.83-4.44-8.61-6.19-11.84-2.31C56.14,74.59,61.42,79.92,64.52,76.21Z" transform="translate(-12.92 -16.37)"/><path class="cls-1" d="M104.68,51.42a1.35,1.35,0,0,1,1-.92,2.39,2.39,0,0,1,1.43.26,5.81,5.81,0,0,1,1.53,1.11,8.07,8.07,0,0,1,1.31,1.64,7.25,7.25,0,0,1,.83,1.88,3.38,3.38,0,0,1,0,1.81,1.69,1.69,0,0,1-.19.42l-5.36,22.75,19-27.45,0-.09a1.52,1.52,0,0,1,1.2-.89,3,3,0,0,1,1.64.3,8.17,8.17,0,0,1,1.77,1.15,8.42,8.42,0,0,1,1.52,1.7,7.54,7.54,0,0,1,1,1.92,2.93,2.93,0,0,1,.09,1.79,10.76,10.76,0,0,1-1.1,2.16c-.61,1-1.38,2.19-2.28,3.55l-3,4.46q-1.62,2.43-3.17,4.87t-2.87,4.75A41.84,41.84,0,0,0,117,82.72a9.27,9.27,0,0,0-.87,3,1.11,1.11,0,0,0,.91,1.34,3,3,0,0,0,2.21-.62,11.14,11.14,0,0,0,2.24-2,19,19,0,0,0,1.9-2.68c.56-.95,1-1.78,1.32-2.47a3.12,3.12,0,0,1,1.1-1.41,1.16,1.16,0,0,1,1.86.76,3.13,3.13,0,0,1-.29,1.88,18.57,18.57,0,0,1-.89,1.83,21,21,0,0,1-1.36,2.16,23.94,23.94,0,0,1-1.79,2.23,12.93,12.93,0,0,1-2.14,1.93,11,11,0,0,1-2.39,1.32,5.79,5.79,0,0,1-2.56.4,4,4,0,0,1-3.39-1.7,7.11,7.11,0,0,1-1-4,23.12,23.12,0,0,1,.84-5.57,61.38,61.38,0,0,1,2.1-6.42L105.2,86.34a3.24,3.24,0,0,1-1.32,1.18,2.65,2.65,0,0,1-1.48.28,1.52,1.52,0,0,1-1.1-.75,2.73,2.73,0,0,1-.19-2c.09-.56.26-1.46.49-2.7s.52-2.64.85-4.21.67-3.19,1-4.88.7-3.28,1-4.75l-3.57,6.18q-1.83,3.17-3.38,6t-2.59,5a14.87,14.87,0,0,0-1.22,3.17,1.7,1.7,0,0,1-.8,1.22,1.57,1.57,0,0,1-1.25.14,2,2,0,0,1-1.08-.84,2.33,2.33,0,0,1-.25-1.74,38.77,38.77,0,0,1,1.5-6.35q1.13-3.57,2.63-7.38t3.17-7.56q1.68-3.77,3.15-6.87l2.54-5.26C104.05,52.8,104.49,51.86,104.68,51.42Z" transform="translate(-12.92 -16.37)"/><path class="cls-1" d="M107.92,53.31l-.36.43-2.89.38c2.87.52,2.47,2.1,1.92,4.19-.68,2.58-1.23,5.21-1.84,7.8l-3.12,13.27c-1,4.24,4.45,6.35,6.85,2.88l8.66-12.51,6.37-9.21c.33-.47,4.07-5.08,3.82-5.52l.12-.17c.19-.28,0-.09-.66.54-1,.46-.92,1,.27,1.46.31,1.22.56,1.57.75,1,.13,1.17-3.59,5.68-4.4,6.88-3.66,5.48-8.15,11.22-10.3,17.53-1.3,3.81-.56,8.53,4.42,8.47,2.4,0,4.39-1.51,6-3.16.8-.81,4-6.28,4.37-6.32l-4.24-1.73a21.46,21.46,0,0,1-1.83,3c-1.29,1.75-2.81,4.16-5,2.82-3-1.84.54-9,1.56-11.73,1.57-4.23-4.57-6.14-6.85-2.89l-4.8,6.84c-1.31,1.87-3.37,6.2-5.35,6.57l2.89.38-1.1-.75,1.72,2.24c-.61-1.94.92-5.75,1.32-7.68q.93-4.43,1.88-8.84c.86-4-4.65-6.72-6.86-2.89-2.46,4.27-5,8.51-7.32,12.85-.89,1.64-1.75,3.29-2.51,5-.37.81-1.64,3.43-1.14,3l2.65-1.1-1.25.14,2.66,1.1c-1.86-1.45,5.42-16.75,6.22-18.58,2.32-5.3,5-10.43,7.36-15.7,2-4.36-4.49-8.18-6.48-3.78-2.85,6.31-6,12.46-8.71,18.85-2.44,5.8-7.08,14.33-6.1,20.75.9,5.84,7.93,6.13,10.42,1.5,3.59-6.68,6.85-13.58,10.68-20.21l-6.85-2.89c-.79,3.72-1.61,7.43-2.36,11.15-.52,2.58-1.67,5.91-1.1,8.54,1.16,5.27,7.38,5.16,10.43,1.77,3.86-4.3,6.86-9.7,10.17-14.43l-6.85-2.89c-2.63,7.09-6.72,23.5,6.32,22.36,6.37-.55,17.7-11.7,12.66-18.25a4,4,0,0,0-4.24-1.73,5.66,5.66,0,0,0-4.24,2.87c-.61.88-1,2-1.57,2.9s-2.92,3-1.94,3.56l1.73,2.24c-.23-1.09,2.37-5.1,3.31-6.69,2-3.29,4.07-6.46,6.19-9.63,2.43-3.64,6.67-8.09,5.7-12.81-1.39-6.76-9.92-11.23-14.43-5-6.38,8.87-12.44,18-18.65,27l6.85,2.89,4.83-20.5c.72-3,1.63-5.68-.51-9.25-2.52-4.23-8.46-7.11-11.74-2.09C98.79,53.58,105.29,57.34,107.92,53.31Z" transform="translate(-12.92 -16.37)"/><path class="cls-1" d="M139.7,73.56a1.8,1.8,0,0,1,1.5-1,4.36,4.36,0,0,1,2.18.29,4.14,4.14,0,0,1,1.81,1.31,2.36,2.36,0,0,1,.38,2.16,10.3,10.3,0,0,1-.85,2c-.4.77-.85,1.55-1.34,2.35L142,83c-.47.79-.84,1.48-1.13,2.1a3.46,3.46,0,0,0-.4,1.43c0,.34.26.5.73.47a3.79,3.79,0,0,0,2.09-.92,11.43,11.43,0,0,0,1.91-2,18.87,18.87,0,0,0,1.6-2.49c.46-.87.84-1.66,1.12-2.35A3.13,3.13,0,0,1,149,77.83a1.3,1.3,0,0,1,1.15-.18,1.16,1.16,0,0,1,.7.89,3,3,0,0,1-.28,1.88,21.92,21.92,0,0,1-1.34,2.87A19.77,19.77,0,0,1,147,86.53a13.55,13.55,0,0,1-3,2.65,6.42,6.42,0,0,1-3.64,1.11,2.91,2.91,0,0,1-2.8-1.43,7.48,7.48,0,0,1-.77-3.55,14.24,14.24,0,0,1-3.08,3.48,5.48,5.48,0,0,1-4,1.22A5.9,5.9,0,0,1,126,88.5a6.39,6.39,0,0,1-1.81-3.29,10.7,10.7,0,0,1,0-4.37,16.55,16.55,0,0,1,1.69-4.74,19.51,19.51,0,0,1,3.24-4.42,16,16,0,0,1,4.68-3.34,17.27,17.27,0,0,1,6-1.55,18.39,18.39,0,0,1,7.17.94,2.5,2.5,0,0,1,1.34.92,1.73,1.73,0,0,1,.38,1.19,1.19,1.19,0,0,1-.71.9,2.88,2.88,0,0,1-1.9,0,9.87,9.87,0,0,0-4.14-.14A11.73,11.73,0,0,0,138.26,72a14,14,0,0,0-3.12,2.44,22.23,22.23,0,0,0-2.49,3.06,16.75,16.75,0,0,0-1.74,3.19,13.24,13.24,0,0,0-.87,2.94,5.27,5.27,0,0,0,0,2.23,1.34,1.34,0,0,0,1.11,1,2.35,2.35,0,0,0,1.93-.57,9.92,9.92,0,0,0,1.83-2,21.14,21.14,0,0,0,1.67-2.89c.51-1.08,1-2.12,1.38-3.13s.57-1.92.87-2.77A13.56,13.56,0,0,1,139.7,73.56Z" transform="translate(-12.92 -16.37)"/><path class="cls-1" d="M142.35,76.21c-.48.57-1.29,1-1.85,1.93s-1.21,2-1.79,3a13,13,0,0,0-1.9,4.42,4,4,0,0,0,1.72,4.24c2.54,1.63,5.15.8,7.37-1,1.3-1.08,4.65-7.37,5.23-7.47l-3.65-1,.7.89-1.1-2.65c.06,1.85-2,4.57-3.18,5.83a5.61,5.61,0,0,1-2.62,1.87c-1.15.3-.55,1.41-.7-.93a3.79,3.79,0,0,0-7-1.9c-.72,1-2.82,3.27-4.3,2.73-2-.74-1.59-3.34-1.3-4.82a13.83,13.83,0,0,1,3.81-7,13,13,0,0,1,5.86-3.4c.63-.17,7.14-1,7.42-.09l1-3.65a39.59,39.59,0,0,0-6.37.16,16.64,16.64,0,0,0-6.21,3.53c-3.82,3.37-7.72,9.17-7.2,14.49a5.44,5.44,0,0,0,8.27,4.47c5.2-2.74,6.17-9.6,8.4-14.39,2-4.35-4.44-8.16-6.47-3.79-1.07,2.31-1.69,4.77-2.71,7.08-.74,1.67-3.57,3.91-1.07,4.28,2.3.34,2.07-2,3.2-3.62,1.57-2.28,3.78-4.47,6.59-5,2.15-.39,4.41.73,6.52-.06a5.2,5.2,0,0,0,1.42-8.9c-3.17-2.81-9.3-2.81-13.21-2.07C127.71,65.16,119,74.8,120.39,84.85c.59,4.31,3.31,7.73,7.65,8.65,5.4,1.15,9.11-2.19,12-6.3l-7-1.89c1.25,19.38,28.42.72,19.7-10.32-.86-1.09-2.42-1.16-3.65-1-5.38.88-4.33,8.15-9,9.35l2.89.38-.73-.47L144,87.53c.72-5,7.17-8.67,4.84-14.31-1.83-4.44-8.61-6.19-11.84-2.31C134,74.59,139.25,79.92,142.35,76.21Z" transform="translate(-12.92 -16.37)"/><path class="cls-1" d="M162.87,75.67a11,11,0,0,1-.87,2c-.43.8-.89,1.62-1.39,2.46l-1.48,2.52A21.45,21.45,0,0,0,158,84.93a4.09,4.09,0,0,0-.45,1.58c0,.39.23.55.7.49a3.79,3.79,0,0,0,2.09-.92,11.43,11.43,0,0,0,1.91-2,18.87,18.87,0,0,0,1.6-2.49,23.91,23.91,0,0,0,1.12-2.35A3.2,3.2,0,0,1,166,77.83a1.3,1.3,0,0,1,1.15-.18,1.17,1.17,0,0,1,.71.89,3.12,3.12,0,0,1-.29,1.88,21.92,21.92,0,0,1-1.34,2.87,19.77,19.77,0,0,1-2.21,3.24,13.33,13.33,0,0,1-3,2.65,6.42,6.42,0,0,1-3.64,1.11,3.61,3.61,0,0,1-2.63-.87,4.48,4.48,0,0,1-1.22-2.26,9.69,9.69,0,0,1-.17-3.15,27.1,27.1,0,0,1,.59-3.57,35.38,35.38,0,0,1,1-3.5c.39-1.13.75-2.1,1.06-2.91v0a2,2,0,0,0-.21-1.86,12.83,12.83,0,0,0-1.25-1.34c-.25.63-.56,1.39-.94,2.28l-1.13,2.73c-.37.92-.74,1.8-1.1,2.63l-.87,2a2.42,2.42,0,0,1-1.13,1.32,1.29,1.29,0,0,1-1.15,0,1.49,1.49,0,0,1-.68-1,2,2,0,0,1,.28-1.53,16.35,16.35,0,0,0,.8-1.59l1-2.24c.36-.8.73-1.63,1.1-2.49l1-2.37c.31-.72.57-1.34.77-1.86s.32-.82.36-.91a5.9,5.9,0,0,1,.47-2.59,2.5,2.5,0,0,1,1.08-1.46,1.61,1.61,0,0,1,1.29-.18,1.35,1.35,0,0,1,.85.82,2,2,0,0,1-.17,1.57,3.27,3.27,0,0,0-.47,1.62,1.85,1.85,0,0,0,.57,1.18,8.41,8.41,0,0,0,1.45,1.15c.63.41,1.4.94,2.31,1.6a6.2,6.2,0,0,1,1.15.7,4.17,4.17,0,0,1,.89,1,3.67,3.67,0,0,1,.49,1.2A2.57,2.57,0,0,1,162.87,75.67Z" transform="translate(-12.92 -16.37)"/><path class="cls-1" d="M159.25,74.68c-1.35,3.75-4.71,6.82-5.36,10.83a4,4,0,0,0,1.73,4.23c2.46,1.73,5.16.8,7.34-1,1.3-1.08,4.65-7.37,5.23-7.47l-3.65-1,.7.89-1.09-2.65c0,2-2.16,5.06-3.64,6.32-1.8,1.54-3.55,2.36-3.32-.85a24,24,0,0,1,1.19-5.21c1.42-4.56,2.43-6.88-1.09-10.67-2.11-2.27-5.27-.79-6.26,1.66q-1,2.5-2.07,5c-.39,1-.8,1.91-1.22,2.86-.67,1.08-.48,1.19.58.34l3.24,1.85-.68-1,.37,2.89c.52-2.81,2.22-5.57,3.36-8.19.3-.68,2.35-6.44,2.23-6.42l-3.65-1L154,67l-1.09-2.65c.31,2.54-1.31,3.69.44,6.26,1,1.52,5.79,3.48,5.74,5-.18,4.83,7.32,4.82,7.5,0,.14-3.85-1.94-5.84-5-7.87-2.16-1.44-1.09-.33-1.18-2.22a6.14,6.14,0,0,0-.83-3.48,5.27,5.27,0,0,0-7.73-1c-2.43,1.94-2.43,5.46-3.52,8.14-1.63,4-8.34,13.75-1.06,16.13,6.77,2.22,9.22-9.35,10.94-13.57L152,73.44c.71.76-1.51,5.68-1.75,6.9-.5,2.52-.92,5.29-.25,7.82,1.14,4.29,5,6.41,9.25,5.69C166.3,92.67,175,81.48,169.84,75c-.86-1.09-2.41-1.16-3.65-1-5.38.88-4.33,8.15-9,9.35l2.89.38-.71-.49,1.72,4.23c.62-3.78,4-7.18,5.36-10.83C168.11,72.12,160.87,70.16,159.25,74.68Z" transform="translate(-12.92 -16.37)"/><path class="cls-1" d="M184.72,67.87a1.7,1.7,0,0,1,1.6-1.17,3.46,3.46,0,0,1,2.09.75,5.33,5.33,0,0,1,1.62,2,3.59,3.59,0,0,1,.29,2.52,25.16,25.16,0,0,1-1.16,2.54q-.91,1.83-2.32,4.37t-3.2,5.54q-1.78,3-3.76,6.07l3.06-2.61c1-.86,2-1.76,2.89-2.68a31.6,31.6,0,0,0,2.53-2.84,17.12,17.12,0,0,0,2-3.11,2.69,2.69,0,0,1,1.17-1.38,1.44,1.44,0,0,1,1.22-.14,1.17,1.17,0,0,1,.68.91,2.63,2.63,0,0,1-.44,1.79,23.23,23.23,0,0,1-3.95,5.4q-2.35,2.4-5,4.59l-5.31,4.37a39.06,39.06,0,0,0-4.89,4.72c-.25.35-.5.68-.73,1s-.48.65-.73,1a1.71,1.71,0,0,1-1.2.76,1.46,1.46,0,0,1-1.1-.36,1.72,1.72,0,0,1-.57-1.17A2.61,2.61,0,0,1,170,99q1.56-2.53,3.25-5.78c1.12-2.16,2.24-4.4,3.33-6.72a14,14,0,0,1-3.55,3,6,6,0,0,1-3.92.83,5.82,5.82,0,0,1-3.71-1.81,6.2,6.2,0,0,1-1.44-3.48,11.6,11.6,0,0,1,.52-4.47,20.48,20.48,0,0,1,2.14-4.72A23.47,23.47,0,0,1,170,71.54a16.72,16.72,0,0,1,4.37-3.22,13.33,13.33,0,0,1,5-1.41,10.37,10.37,0,0,1,5.31,1s0,0,0,0S184.72,67.9,184.72,67.87ZM170.86,87.33a2.54,2.54,0,0,0,2-.42A10.86,10.86,0,0,0,175,85.05a23.34,23.34,0,0,0,2.21-2.77c.72-1,1.39-2.08,2-3.08s1.17-1.94,1.64-2.8l1.09-2,1.55-3.76a6.93,6.93,0,0,0-4,.9,15.72,15.72,0,0,0-3.69,2.84,22.71,22.71,0,0,0-3.05,3.92,26.45,26.45,0,0,0-2.1,4.07,9.79,9.79,0,0,0-.77,3.31C169.92,86.62,170.23,87.17,170.86,87.33Z" transform="translate(-12.92 -16.37)"/><path class="cls-1" d="M188,69.76l.66-.88-2.24,1.73c.37-.12-.94,3-1.12,3.29-.88,1.71-1.83,3.38-2.78,5q-2.79,4.89-5.84,9.63c-2.42,3.79,2.81,7.17,5.89,4.55a77.63,77.63,0,0,0,6.85-6.22c1.71-1.86,2.89-4.89,4.76-6.4l-2.65,1.1,1.22-.14-3.24-1.86.24-1.08A15.34,15.34,0,0,1,188.17,81a23.92,23.92,0,0,1-2.42,2.81c-2,2-4.18,3.82-6.37,5.62-2,1.64-4,3.22-5.89,5-1.41,1.37-2.6,3.57-4.22,4.59l2.89-.38-1.11-.35,2.24,1.72c.46,1-.28,1,.7-.37a35.56,35.56,0,0,0,2-3.68c1.31-2.47,2.54-5,3.75-7.51,1.75-3.66-2.76-7.78-5.89-4.54-1.81,1.88-6.18,4.41-6.25-.24,0-2.41,1.55-5.11,2.92-7,3.16-4.4,7.67-7.13,13.12-5a3.75,3.75,0,0,0,4.23-1.72l.05-.1c2.15-4.3-4.32-8.1-6.48-3.78l0,.09,4.23-1.72c-11.45-4.39-23,5.75-25.23,16.81-.95,4.78.53,9.93,5.22,12,5.18,2.33,9.92-.27,13.54-4l-5.89-4.54c-2.12,4.42-5.24,8.81-7,13.36-1.11,2.9-.3,6.2,2.73,7.49,4.07,1.74,6.21-2,8.54-4.58,3.48-3.77,7.86-6.63,11.63-10.09,2.91-2.67,6.37-6,7.56-9.94.86-2.83-.4-6.27-3.58-6.85-3.79-.68-5.3,2.28-7,4.91-2.3,3.52-5.79,6.19-9,8.89l5.89,4.54c2.6-4.06,5.08-8.19,7.4-12.42,1.46-2.67,3.83-6,3.64-9.25-.4-6.67-8.5-10.32-12.68-4.72C178.59,69.85,185.1,73.59,188,69.76Z" transform="translate(-12.92 -16.37)"/><path class="cls-1" d="M170.86,91.08c5.87.07,9.61-6.56,12.25-11a63.25,63.25,0,0,0,4-8.47c1-2.33-1.43-4.72-3.61-4.75-6.13-.08-10.92,4.63-14,9.52-2.35,3.76-5.93,11.22-.61,14.16,4.23,2.33,8-4.15,3.79-6.48.64,1.83,1,2.18,1,1.06a11.24,11.24,0,0,1,.61-1.86,20.69,20.69,0,0,1,2.23-3.94c1.6-2.29,4-5,7-5l-3.62-4.74c-.62,1.5-1.38,3.28-1.82,4.06-.87,1.56-1.75,3.1-2.72,4.61-.76,1.16-2.87,5.28-4.53,5.26C166,83.52,166,91,170.86,91.08Z" transform="translate(-12.92 -16.37)"/><path class="cls-1" d="M206,68.1a1.94,1.94,0,0,1,1.77-1.24,4.82,4.82,0,0,1,2.49.56,5.5,5.5,0,0,1,2,1.79,2.84,2.84,0,0,1,.47,2.42A12.06,12.06,0,0,1,211.72,74c-.55,1-1.16,2.06-1.83,3.22s-1.36,2.33-2.07,3.52-1.29,2.26-1.76,3.2a9.39,9.39,0,0,0-.87,2.28c-.11.58.07.85.54.82a3.79,3.79,0,0,0,2.09-.92,10.62,10.62,0,0,0,1.88-2,19.82,19.82,0,0,0,1.58-2.49c.47-.87.86-1.66,1.17-2.35a3.06,3.06,0,0,1,1.11-1.41,1.3,1.3,0,0,1,1.15-.18,1.16,1.16,0,0,1,.7.89,3.1,3.1,0,0,1-.28,1.88,26.53,26.53,0,0,1-1.39,2.87,19.77,19.77,0,0,1-2.21,3.24,13.33,13.33,0,0,1-3,2.65,6.42,6.42,0,0,1-3.64,1.11,3.34,3.34,0,0,1-1.86-.49,3.16,3.16,0,0,1-1.1-1.34,6.19,6.19,0,0,1-.47-2,17.78,17.78,0,0,1,0-2.53,25.52,25.52,0,0,1-1.76,2.7,12.08,12.08,0,0,1-2.07,2.19,8,8,0,0,1-2.33,1.33,4.44,4.44,0,0,1-2.53.17,3.84,3.84,0,0,1-2.52-1.48,5.78,5.78,0,0,1-1-2.87,14,14,0,0,1,.26-3.92,36.64,36.64,0,0,1,1.22-4.63q.81-2.43,1.93-5t2.4-5a1.86,1.86,0,0,1,1.15-1.06,2.64,2.64,0,0,1,1.5,0,4.82,4.82,0,0,1,1.56.85,6.61,6.61,0,0,1,1.29,1.36,4.31,4.31,0,0,1,.68,1.58,2.24,2.24,0,0,1-.17,1.48c-.56,1-1.17,2.06-1.83,3.17s-1.3,2.22-1.93,3.31-1.21,2.16-1.76,3.18a26.06,26.06,0,0,0-1.31,2.72,6.43,6.43,0,0,0-.54,2c0,.55.15.89.56,1a2,2,0,0,0,1.69-.23,7.28,7.28,0,0,0,1.79-1.55,18.68,18.68,0,0,0,1.74-2.45c.56-.94,1.09-1.88,1.59-2.84s.95-1.88,1.34-2.77.72-1.66,1-2.28c.5-1.57,1-3,1.48-4.21S205.76,68.64,206,68.1Z" transform="translate(-12.92 -16.37)"/><path class="cls-1" d="M208.66,70.76c-.7.91-1.32,3.34-2,4.52-.79,1.37-1.61,2.73-2.4,4.1-1.26,2.21-3,4.8-2.76,7.44a4,4,0,0,0,2.76,3.61c2.44.91,5-.5,6.71-2.15,1.16-1.09,4.13-6.92,4.74-7l-3.64-1,.7.89-1.1-2.65c.06,1.92-2.3,5.07-3.68,6.32-.48.44-2.3,2.06-3,1.68.54.27.31-2.47.32-2.64.14-3.82-5.12-5-7-1.9-.84,1.39-3.72,6.88-5.25,2.74-.36-1,.63-3.81.9-4.77a48.69,48.69,0,0,1,2.42-6.49c.34-.76,3.36-6.34,1-2.92a82.67,82.67,0,0,0-5.75,10.33c-1,2-2,4.26-1.43,6.52,1.38,5.32,7.5,3.5,10.25.55,4.64-5,6.18-11.93,8.81-18,1.91-4.38-4.55-8.21-6.48-3.79-1.21,2.78-2.12,5.65-3.25,8.45-.52,1.28-3.62,8.84-5.21,8.68l2.65,1.1c1.44,1.12-.34,2.32,1.14.23a31.74,31.74,0,0,0,1.59-3c1.22-2.21,2.56-4.35,3.79-6.55,1.86-3.33,2.05-6.46-.51-9.51-1.93-2.29-5.22-3.72-8.15-2.65-3.45,1.26-4.81,6.25-6.06,9.26-2.3,5.5-5.92,15-.48,19.92,6.21,5.59,13.25-1.09,16.46-6.35l-7-1.89c-.26,7.22,4.78,12.8,12.14,8.83,5.54-3,12-12,7.47-17.74-.86-1.09-2.42-1.16-3.65-1a5.76,5.76,0,0,0-4.24,2.89c-.49.72-3.3,6.25-3.23,6.28L209,86.82c-.2-2.47,3.6-6.81,4.79-8.88,1.4-2.44,3.2-5.09,2.73-8-.9-5.64-9.29-9.39-13.15-4.44C200.43,69.22,205.7,74.56,208.66,70.76Z" transform="translate(-12.92 -16.37)"/><path class="cls-1" d="M225.33,80.37a12.62,12.62,0,0,1-6.86.66,14.3,14.3,0,0,0-.61,2.42,5,5,0,0,0,0,2,2.37,2.37,0,0,0,.82,1.36,2.71,2.71,0,0,0,1.74.5,10.92,10.92,0,0,0,4.46-.87,13.45,13.45,0,0,0,3.44-2.14,13.62,13.62,0,0,0,2.39-2.66,14,14,0,0,0,1.37-2.42,3.12,3.12,0,0,1,1.1-1.41,1.3,1.3,0,0,1,1.15-.18,1.17,1.17,0,0,1,.71.89,3.18,3.18,0,0,1-.28,1.88,14,14,0,0,1-1.58,2.87,17.53,17.53,0,0,1-2.94,3.24,16.93,16.93,0,0,1-4.2,2.63,13.23,13.23,0,0,1-5.43,1.08,7.7,7.7,0,0,1-8.18-6.2,12.78,12.78,0,0,1,.09-5.76,16.4,16.4,0,0,1,2.59-5.76A15.5,15.5,0,0,1,220,68.08a13.43,13.43,0,0,1,6.94-1.76,7.33,7.33,0,0,1,3.94.87,4,4,0,0,1,1.77,2.23,5.67,5.67,0,0,1,0,3,9.85,9.85,0,0,1-1.48,3.22,13.63,13.63,0,0,1-2.56,2.82A10,10,0,0,1,225.33,80.37Zm-1-2.49a8.23,8.23,0,0,0,3.06-2.09,9,9,0,0,0,1.81-2.8,4.26,4.26,0,0,0,.3-2.46,1.27,1.27,0,0,0-1.41-1.06,3.77,3.77,0,0,0-2.06.77,12.78,12.78,0,0,0-2.28,2.05,22.36,22.36,0,0,0-2.21,2.87,30.91,30.91,0,0,0-1.91,3.29,9.36,9.36,0,0,0,2.14,0A9,9,0,0,0,224.29,77.88Z" transform="translate(-12.92 -16.37)"/><path class="cls-1" d="M224.33,76.76a13.08,13.08,0,0,1-5.86.52c-1.63-.2-3.2,1.31-3.62,2.75-1.6,5.46-.29,11.17,6.39,11A15.09,15.09,0,0,0,230,87.77c1.16-.88,5-6.44,5.39-6.51l-3.65-1,.71.89-1.1-2.65c.09,3.21-4.83,6.62-7.5,7.48-5.62,1.8-9-1.87-7.44-7.5,1.2-4.28,4.93-8.17,9.55-8.38,2.83-.13,3.8.55,2.29,3.12a9.62,9.62,0,0,1-4.77,3.87c-4.43,1.88-.62,8.34,3.78,6.48,7.17-3,14.42-15.7,4.5-20.14s-20.58,4.61-22.79,13.81c-2.47,10.27,5.09,18.63,15.56,16.31C231.48,92,243,82.56,237,75c-.86-1.09-2.41-1.16-3.64-1-3.57.58-4,3.18-5.86,5.74a9.53,9.53,0,0,1-5,3.56q-3.59-.36-1,1.2a10.18,10.18,0,0,1,.56-2.5l-3.61,2.75a18.18,18.18,0,0,0,7.85-.79C230.93,82.58,229,75.33,224.33,76.76Z" transform="translate(-12.92 -16.37)"/><path class="cls-1" d="M226.19,81.12A12.45,12.45,0,0,0,232.77,74c1-2.94.44-6.91-2.93-8-6.15-1.94-11.17,6-13.48,10.53-1.4,2.72.38,5.32,3.23,5.65a13,13,0,0,0,5.7-.7c4.54-1.57,2.59-8.82-2-7.23a7.8,7.8,0,0,1-3.71.43l3.24,5.64a27.12,27.12,0,0,1,2.92-4.7,13.85,13.85,0,0,1,1.75-1.84c.09-.07.6-.42.65-.49.38-.49-.22.3-.92-.22l-1.34-1.35c-.68-1,.27-.64-.21-.08-.33.38-.5.91-.83,1.3a6,6,0,0,1-2.45,1.68c-1.85.81-2.28,3.53-1.34,5.13C222.18,81.69,224.32,81.93,226.19,81.12Z" transform="translate(-12.92 -16.37)"/><path class="cls-1" d="M232.1,79.24q1-2,2.23-4c.8-1.35,1.6-2.67,2.42-4s1.61-2.57,2.37-3.81,1.48-2.42,2.14-3.55a1.45,1.45,0,0,1,1.65-.89,3.76,3.76,0,0,1,1.83,1.1,6.54,6.54,0,0,1,1.32,2,2.08,2.08,0,0,1,.09,1.81,1.66,1.66,0,0,0-.12,1,7,7,0,0,0,.31,1.31c.15.49.34,1,.56,1.6s.42,1.17.61,1.76a13.9,13.9,0,0,1,.71,6.18,13.44,13.44,0,0,1-1.79,5.29,12.23,12.23,0,0,0,2.33-2.42,26.36,26.36,0,0,0,2.09-3.41,3.13,3.13,0,0,1,1.2-1.36,1.37,1.37,0,0,1,1.2-.16,1.19,1.19,0,0,1,.68.89,2.84,2.84,0,0,1-.4,1.81,18.22,18.22,0,0,1-2.59,3.81,19.45,19.45,0,0,1-3.64,3.24,16.65,16.65,0,0,1-4.46,2.18,13.19,13.19,0,0,1-5.06.59.26.26,0,0,0-.14,0l-.14,0a5.31,5.31,0,0,1-3.38-1.06,6.76,6.76,0,0,1-2.07-2.61,8.45,8.45,0,0,1-.75-3.33,8.29,8.29,0,0,1,.52-3.25A3.34,3.34,0,0,1,232.1,79.24Zm5.12,3.67a2,2,0,0,0-1.65.66A2.57,2.57,0,0,0,235,85a2.27,2.27,0,0,0,.4,1.45,1.42,1.42,0,0,0,1.25.66,3.66,3.66,0,0,0,2.25-.78,6.24,6.24,0,0,0,1.74-2,10.76,10.76,0,0,0,1.06-2.91,13,13,0,0,0,.26-3.36,13.53,13.53,0,0,0-.66-3.41,9.55,9.55,0,0,0-1.69-3.06c-.38.6-.74,1.21-1.08,1.84s-.71,1.14-1.09,1.83-.76,1.39-1.17,2.11a3.21,3.21,0,0,1,1.81,1.13,4.51,4.51,0,0,1,.94,1.88,2.49,2.49,0,0,1-.21,1.76A1.66,1.66,0,0,1,237.22,82.91Z" transform="translate(-12.92 -16.37)"/><path class="cls-1" d="M235.33,81.14c2.61-4.87,5.53-11.32,9.32-15.35L242,66.88c.48,0,.71,4.21,1,5.16,1.25,4,2.32,7.12.19,11.14a3.77,3.77,0,0,0,5.89,4.54c.87-.78,4.65-6.32,5.16-6.39L250,79.61c.21.28-4.21,4.34-4.6,4.62a12.59,12.59,0,0,1-5.9,2.28c.62-.07-2.77.19-2.86.14-2.25-1.13-1.57-4.62-.94-6.41,1.61-4.56-5.63-6.52-7.23-2-3.11,8.83,2.67,16.67,11.88,15.66,6.22-.68,22.23-10.09,16.12-18.09a4,4,0,0,0-4.23-1.72c-4.44.61-5.48,5.62-8.47,8.32L249.67,87a18.42,18.42,0,0,0,1.46-14.35c-1.22-4.16-.79-8.93-4.62-11.84s-6.92-1.1-9.16,2.41c-3,4.63-5.9,9.33-8.49,14.17C226.58,81.61,233.05,85.4,235.33,81.14Z" transform="translate(-12.92 -16.37)"/><path class="cls-1" d="M237.22,79.16c-3.56.38-6.27,2.8-5.88,6.63.4,4,4.23,5.92,7.86,4.62,7.92-2.82,8-15,3.65-20.72-1.66-2.21-4.88-2.6-6.47,0-1.16,1.9-2.25,3.84-3.34,5.78A3.81,3.81,0,0,0,235.28,81l1.94-1.82c-4.73.58-4.79,8.09,0,7.5,7.83-1,6.59-10.7.06-12.91l2.24,5.51c1.09-2,2.17-3.88,3.33-5.78h-6.47a8.36,8.36,0,0,1,1.84,5.13,8.07,8.07,0,0,1-.4,2.85c-.28.8-3.12,5.47-.6,5.2C242,86.15,242,78.65,237.22,79.16Z" transform="translate(-12.92 -16.37)"/><path class="cls-1" d="M265.89,73.56a1.8,1.8,0,0,1,1.5-1,4.42,4.42,0,0,1,2.19.29,4.14,4.14,0,0,1,1.81,1.31,2.35,2.35,0,0,1,.37,2.16,9.6,9.6,0,0,1-.84,2c-.41.77-.85,1.55-1.34,2.35s-1,1.59-1.43,2.37A21.74,21.74,0,0,0,267,85.1a3.31,3.31,0,0,0-.4,1.43c0,.34.26.5.73.47a3.82,3.82,0,0,0,2.09-.92,11.39,11.39,0,0,0,1.9-2,17.9,17.9,0,0,0,1.6-2.49,24.21,24.21,0,0,0,1.13-2.35,3.12,3.12,0,0,1,1.1-1.41,1.31,1.31,0,0,1,1.15-.18,1.17,1.17,0,0,1,.71.89,3.18,3.18,0,0,1-.28,1.88,23.33,23.33,0,0,1-1.34,2.87,20.42,20.42,0,0,1-2.21,3.24,13.55,13.55,0,0,1-3,2.65,6.48,6.48,0,0,1-3.65,1.11,2.9,2.9,0,0,1-2.79-1.43,7.37,7.37,0,0,1-.78-3.55,13.84,13.84,0,0,1-3.08,3.48A5.47,5.47,0,0,1,256,90a5.9,5.9,0,0,1-3.76-1.51,6.39,6.39,0,0,1-1.81-3.29,11.06,11.06,0,0,1,0-4.37,16.29,16.29,0,0,1,1.7-4.74,19.51,19.51,0,0,1,3.24-4.42A16,16,0,0,1,260,68.34a17.33,17.33,0,0,1,6-1.55,18.32,18.32,0,0,1,7.16.94,2.42,2.42,0,0,1,1.34.92,1.68,1.68,0,0,1,.38,1.19,1.18,1.18,0,0,1-.7.9,2.91,2.91,0,0,1-1.91,0,9.83,9.83,0,0,0-4.13-.14A11.64,11.64,0,0,0,264.46,72a13.83,13.83,0,0,0-3.13,2.44,22.23,22.23,0,0,0-2.49,3.06,17.94,17.94,0,0,0-1.74,3.19,13.24,13.24,0,0,0-.87,2.94,5.25,5.25,0,0,0,0,2.23,1.33,1.33,0,0,0,1.1,1,2.35,2.35,0,0,0,1.93-.57,9.37,9.37,0,0,0,1.83-2,20.15,20.15,0,0,0,1.67-2.89c.52-1.08,1-2.12,1.39-3.13s.57-1.92.87-2.77A13.7,13.7,0,0,1,265.89,73.56Z" transform="translate(-12.92 -16.37)"/><path class="cls-1" d="M268.54,76.21c-.48.57-1.29,1-1.85,1.93s-1.21,2-1.78,3A13,13,0,0,0,263,85.53a4,4,0,0,0,1.73,4.24c2.53,1.63,5.14.8,7.36-1,1.3-1.08,4.66-7.37,5.23-7.47l-3.65-1,.71.89-1.1-2.65c.05,1.85-2,4.57-3.19,5.83a5.56,5.56,0,0,1-2.62,1.87c-1.15.3-.55,1.41-.7-.93a3.78,3.78,0,0,0-7-1.9c-.72,1-2.83,3.27-4.3,2.73-2-.74-1.59-3.34-1.31-4.82a13.9,13.9,0,0,1,3.81-7,13.06,13.06,0,0,1,5.86-3.4c.64-.17,7.14-1,7.42-.09l1-3.65a39.7,39.7,0,0,0-6.38.16,16.64,16.64,0,0,0-6.21,3.53c-3.82,3.37-7.72,9.17-7.2,14.49a5.45,5.45,0,0,0,8.28,4.47c5.2-2.74,6.17-9.6,8.4-14.39,2-4.35-4.44-8.16-6.48-3.79-1.07,2.31-1.69,4.77-2.71,7.08-.74,1.67-3.56,3.91-1.06,4.28,2.3.34,2.06-2,3.2-3.62,1.56-2.28,3.78-4.47,6.59-5,2.15-.39,4.4.73,6.51-.06a5.2,5.2,0,0,0,1.43-8.9c-3.18-2.82-9.3-2.81-13.22-2.07-9.48,1.78-18.17,11.42-16.8,21.47.59,4.31,3.3,7.73,7.64,8.65,5.41,1.15,9.11-2.19,12-6.3l-7-1.89C260.52,104.69,287.69,86,279,75a3.8,3.8,0,0,0-3.65-1c-5.38.88-4.34,8.15-9,9.35l2.89.38-.73-.47,1.72,4.24c.73-5,7.17-8.67,4.84-14.31-1.83-4.44-8.6-6.19-11.83-2.31C260.17,74.59,265.45,79.92,268.54,76.21Z" transform="translate(-12.92 -16.37)"/><path class="cls-2" d="M47.11,80.14a2.77,2.77,0,0,1,1-1.25,1.5,1.5,0,0,1,1.1-.23,1,1,0,0,1,.73.75,2.46,2.46,0,0,1-.19,1.71,20.23,20.23,0,0,1-1.22,2.42,33.36,33.36,0,0,1-2,3,34.27,34.27,0,0,1-2.37,3,15,15,0,0,1-2.4,2.2,3.32,3.32,0,0,1-1.27.76,6.63,6.63,0,0,1-2.16,0c-1-.09-2.08-.22-3.31-.4l-4-.54c-1.44-.18-2.86-.32-4.26-.4a37.91,37.91,0,0,0-4,0,10.65,10.65,0,0,0-3.32.69,1.54,1.54,0,0,1-1.43,0,1.62,1.62,0,0,1-.73-1,2.16,2.16,0,0,1,.21-1.38,2.37,2.37,0,0,1,1.34-1.11c.72-.28,1.45-.54,2.19-.8s1.46-.47,2.18-.65a3.61,3.61,0,0,1,0-.66,35.4,35.4,0,0,1,1.46-6.11q1.08-3.34,2.51-6.79t3-6.82c1.07-2.24,2.06-4.27,3-6.11S35,57,35.72,55.7s1.1-2.15,1.29-2.59a1.39,1.39,0,0,1,1.1-.92,3.4,3.4,0,0,1,1.7.24,8,8,0,0,1,1.88,1.08,10.41,10.41,0,0,1,1.69,1.62A7.16,7.16,0,0,1,44.48,57a2.79,2.79,0,0,1,.14,1.81,11.29,11.29,0,0,1-1.36,2.42c-.78,1.17-1.75,2.57-2.89,4.18l-3.76,5.27q-2,2.83-3.93,5.64T29.3,81.62A25.83,25.83,0,0,0,27.14,86a51.84,51.84,0,0,1,5.29-.72c1.7-.15,3.26-.22,4.67-.24s2.64,0,3.69.09,1.86.17,2.42.26l0,0a1.91,1.91,0,0,0,1-.57,8.47,8.47,0,0,0,1.22-1.53A23.44,23.44,0,0,0,47.11,80.14Z" transform="translate(-12.92 -16.37)"/><path class="cls-2" d="M62.11,74.5a1.8,1.8,0,0,1,1.5-1,4.52,4.52,0,0,1,2.19.28,4.22,4.22,0,0,1,1.81,1.32A2.38,2.38,0,0,1,68,77.22a10.83,10.83,0,0,1-.84,2c-.41.77-.86,1.55-1.34,2.35l-1.44,2.37c-.47.79-.84,1.48-1.13,2.09a3.53,3.53,0,0,0-.4,1.44c0,.34.26.5.73.47A3.79,3.79,0,0,0,65.65,87a11.43,11.43,0,0,0,1.91-2,18.87,18.87,0,0,0,1.6-2.49,23.91,23.91,0,0,0,1.12-2.35,3.08,3.08,0,0,1,1.11-1.41,1.34,1.34,0,0,1,1.15-.19,1.23,1.23,0,0,1,.71.9A3.13,3.13,0,0,1,73,81.36a21.3,21.3,0,0,1-1.34,2.86,19.43,19.43,0,0,1-2.21,3.25,13.33,13.33,0,0,1-3,2.65,6.42,6.42,0,0,1-3.64,1.11A2.9,2.9,0,0,1,60,89.79a7.42,7.42,0,0,1-.77-3.54,14,14,0,0,1-3.08,3.47,5.43,5.43,0,0,1-4,1.23,5.9,5.9,0,0,1-3.76-1.51,6.39,6.39,0,0,1-1.81-3.29,10.7,10.7,0,0,1,0-4.37A16.72,16.72,0,0,1,48.31,77a19.46,19.46,0,0,1,3.24-4.41,16,16,0,0,1,4.68-3.34,17.27,17.27,0,0,1,6-1.55,18.39,18.39,0,0,1,7.17.94,2.5,2.5,0,0,1,1.34.91,1.77,1.77,0,0,1,.38,1.2,1.19,1.19,0,0,1-.71.9,2.88,2.88,0,0,1-1.9,0,9.87,9.87,0,0,0-4.14-.14,12.05,12.05,0,0,0-3.69,1.36,14.35,14.35,0,0,0-3.12,2.45,22.77,22.77,0,0,0-2.49,3,18,18,0,0,0-1.74,3.2,13.08,13.08,0,0,0-.87,2.94,5.27,5.27,0,0,0,0,2.23,1.33,1.33,0,0,0,1.11,1,2.3,2.3,0,0,0,1.93-.56,10.19,10.19,0,0,0,1.83-2A21.14,21.14,0,0,0,59,82.37c.51-1.08,1-2.12,1.38-3.13s.58-1.92.87-2.77A14.78,14.78,0,0,1,62.11,74.5Z" transform="translate(-12.92 -16.37)"/><path class="cls-2" d="M104.92,52.36a1.35,1.35,0,0,1,1-.92,2.31,2.31,0,0,1,1.43.26,5.81,5.81,0,0,1,1.53,1.11,8.47,8.47,0,0,1,1.32,1.64,7.21,7.21,0,0,1,.82,1.88,3.38,3.38,0,0,1,0,1.81,1.39,1.39,0,0,1-.19.42l-5.35,22.75,19-27.45,0-.09a1.52,1.52,0,0,1,1.2-.89,3.05,3.05,0,0,1,1.65.3,8.37,8.37,0,0,1,1.76,1.15,8.51,8.51,0,0,1,1.53,1.7,7.84,7.84,0,0,1,1,1.92,2.93,2.93,0,0,1,.09,1.79,10.23,10.23,0,0,1-1.1,2.16c-.61,1-1.37,2.19-2.28,3.55s-1.9,2.85-3,4.46-2.13,3.24-3.17,4.87-2,3.21-2.87,4.75a44.14,44.14,0,0,0-2.11,4.13,9.53,9.53,0,0,0-.87,3,1.11,1.11,0,0,0,.92,1.34,3,3,0,0,0,2.21-.62,11.37,11.37,0,0,0,2.23-2,19,19,0,0,0,1.9-2.68,27.81,27.81,0,0,0,1.32-2.47,3,3,0,0,1,1.1-1.41,1.26,1.26,0,0,1,1.15-.16,1.24,1.24,0,0,1,.71.92,3.16,3.16,0,0,1-.28,1.87,17.88,17.88,0,0,1-.9,1.84,21,21,0,0,1-1.36,2.16,23.94,23.94,0,0,1-1.79,2.23,12.87,12.87,0,0,1-2.13,1.93,11.32,11.32,0,0,1-2.4,1.32,5.94,5.94,0,0,1-2.56.4,4,4,0,0,1-3.39-1.7,7.2,7.2,0,0,1-1-4,23.18,23.18,0,0,1,.85-5.57A58.3,58.3,0,0,1,115,73.6l-9.59,13.68a3.15,3.15,0,0,1-1.32,1.17,2.57,2.57,0,0,1-1.48.29,1.57,1.57,0,0,1-1.1-.75,2.78,2.78,0,0,1-.19-2c.09-.56.26-1.46.49-2.7s.52-2.64.85-4.21l1-4.89c.36-1.69.7-3.27,1-4.74l-3.57,6.18q-1.83,3.16-3.38,6t-2.59,5A15.46,15.46,0,0,0,94,89.82a1.67,1.67,0,0,1-.8,1.22,1.55,1.55,0,0,1-1.24.14,1.92,1.92,0,0,1-1.08-.85,2.25,2.25,0,0,1-.26-1.73,38.77,38.77,0,0,1,1.5-6.35q1.13-3.57,2.63-7.38c1-2.54,2.06-5.06,3.18-7.57s2.16-4.79,3.15-6.86,1.83-3.82,2.53-5.26S104.73,52.8,104.92,52.36Z" transform="translate(-12.92 -16.37)"/><path class="cls-2" d="M139.94,74.5a1.8,1.8,0,0,1,1.5-1,4.52,4.52,0,0,1,2.19.28,4.22,4.22,0,0,1,1.81,1.32,2.35,2.35,0,0,1,.37,2.16,10.18,10.18,0,0,1-.84,2c-.41.77-.86,1.55-1.34,2.35l-1.44,2.37A22.61,22.61,0,0,0,141.07,86a3.24,3.24,0,0,0-.4,1.44c0,.34.25.5.72.47a3.82,3.82,0,0,0,2.1-.92,11.77,11.77,0,0,0,1.9-2,18.87,18.87,0,0,0,1.6-2.49c.47-.87.84-1.66,1.13-2.35a3,3,0,0,1,1.1-1.41,1.34,1.34,0,0,1,1.15-.19,1.21,1.21,0,0,1,.71.9,3.19,3.19,0,0,1-.28,1.88,22.62,22.62,0,0,1-1.34,2.86,20.72,20.72,0,0,1-2.21,3.25,13.55,13.55,0,0,1-3,2.65,6.48,6.48,0,0,1-3.65,1.11,2.88,2.88,0,0,1-2.79-1.44,7.3,7.3,0,0,1-.78-3.54A14,14,0,0,1,134,89.72,5.43,5.43,0,0,1,130,91a5.9,5.9,0,0,1-3.76-1.51,6.39,6.39,0,0,1-1.81-3.29,10.7,10.7,0,0,1,0-4.37A16.72,16.72,0,0,1,126.14,77a19.21,19.21,0,0,1,3.25-4.41,15.81,15.81,0,0,1,4.67-3.34,17.33,17.33,0,0,1,6-1.55,18.39,18.39,0,0,1,7.17.94,2.5,2.5,0,0,1,1.34.91,1.77,1.77,0,0,1,.38,1.2,1.17,1.17,0,0,1-.71.9,2.88,2.88,0,0,1-1.9,0,9.87,9.87,0,0,0-4.14-.14,12.05,12.05,0,0,0-3.69,1.36,14.35,14.35,0,0,0-3.12,2.45,22.77,22.77,0,0,0-2.49,3,18,18,0,0,0-1.74,3.2,13.08,13.08,0,0,0-.87,2.94,5.1,5.1,0,0,0,.05,2.23,1.3,1.3,0,0,0,1.1,1,2.3,2.3,0,0,0,1.93-.56,10.19,10.19,0,0,0,1.83-2,20.15,20.15,0,0,0,1.67-2.89c.52-1.08,1-2.12,1.39-3.13s.57-1.92.87-2.77A13.7,13.7,0,0,1,139.94,74.5Z" transform="translate(-12.92 -16.37)"/><path class="cls-2" d="M163.11,76.61a11.25,11.25,0,0,1-.87,2c-.42.79-.89,1.62-1.39,2.46l-1.48,2.52a23.58,23.58,0,0,0-1.17,2.23,4.09,4.09,0,0,0-.45,1.57c0,.4.24.56.71.5a3.82,3.82,0,0,0,2.09-.92,11.39,11.39,0,0,0,1.9-2,17.9,17.9,0,0,0,1.6-2.49c.47-.87.84-1.66,1.13-2.35a3,3,0,0,1,1.1-1.41,1.34,1.34,0,0,1,1.15-.19,1.21,1.21,0,0,1,.71.9,3.19,3.19,0,0,1-.28,1.88,22.62,22.62,0,0,1-1.34,2.86,20.05,20.05,0,0,1-2.21,3.25,13.55,13.55,0,0,1-3,2.65,6.48,6.48,0,0,1-3.65,1.11,3.63,3.63,0,0,1-2.63-.87,4.56,4.56,0,0,1-1.22-2.26,9.71,9.71,0,0,1-.16-3.15,27,27,0,0,1,.58-3.57,35.38,35.38,0,0,1,1-3.5c.4-1.13.75-2.1,1.06-2.91v0a2,2,0,0,0-.21-1.86,12.83,12.83,0,0,0-1.25-1.34c-.25.63-.56,1.39-.94,2.28s-.75,1.8-1.12,2.73-.75,1.8-1.11,2.63l-.87,2a2.36,2.36,0,0,1-1.13,1.31,1.23,1.23,0,0,1-1.15,0,1.5,1.5,0,0,1-.68-1,2.07,2.07,0,0,1,.28-1.53,16.73,16.73,0,0,0,.8-1.6l1-2.23,1.11-2.49,1-2.37q.46-1.08.78-1.86c.2-.52.32-.82.35-.92a6,6,0,0,1,.47-2.58,2.47,2.47,0,0,1,1.08-1.46,1.61,1.61,0,0,1,1.29-.18,1.31,1.31,0,0,1,.85.82,2,2,0,0,1-.17,1.57,3.27,3.27,0,0,0-.47,1.62,1.85,1.85,0,0,0,.57,1.18,8.41,8.41,0,0,0,1.45,1.15c.63.41,1.4.94,2.31,1.6a6.2,6.2,0,0,1,1.15.7,3.64,3.64,0,0,1,.89,1,3.92,3.92,0,0,1,.5,1.2A2.7,2.7,0,0,1,163.11,76.61Z" transform="translate(-12.92 -16.37)"/><path class="cls-2" d="M185,68.81a1.71,1.71,0,0,1,1.6-1.18,3.41,3.41,0,0,1,2.09.76,5.35,5.35,0,0,1,1.63,2,3.58,3.58,0,0,1,.28,2.52,25.38,25.38,0,0,1-1.15,2.54c-.62,1.22-1.39,2.67-2.33,4.37s-2,3.54-3.2,5.54-2.44,4-3.76,6.07l3.06-2.61c1-.86,2-1.76,2.89-2.68a33.47,33.47,0,0,0,2.54-2.85,17.55,17.55,0,0,0,1.95-3.1,2.65,2.65,0,0,1,1.17-1.38,1.41,1.41,0,0,1,1.22-.14,1.18,1.18,0,0,1,.69.91,2.65,2.65,0,0,1-.45,1.79,23.44,23.44,0,0,1-3.95,5.4q-2.36,2.4-5,4.59L179,95.72a39.06,39.06,0,0,0-4.89,4.72l-.73,1c-.23.33-.48.65-.73,1a1.76,1.76,0,0,1-1.2.76,1.46,1.46,0,0,1-1.1-.36,1.72,1.72,0,0,1-.56-1.17,2.48,2.48,0,0,1,.47-1.67q1.54-2.53,3.24-5.78t3.34-6.72a14.19,14.19,0,0,1-3.55,3,6,6,0,0,1-3.93.83,5.87,5.87,0,0,1-3.71-1.81A6.26,6.26,0,0,1,164.17,86a11.37,11.37,0,0,1,.51-4.47,20.29,20.29,0,0,1,2.14-4.72,24,24,0,0,1,3.41-4.33,16.68,16.68,0,0,1,4.37-3.21,13.33,13.33,0,0,1,5-1.41,10.31,10.31,0,0,1,5.31,1.05s0,0,0,0S185,68.84,185,68.81ZM171.1,88.27a2.55,2.55,0,0,0,2-.43A10.47,10.47,0,0,0,175.28,86a23.48,23.48,0,0,0,2.21-2.78c.72-1,1.39-2.07,2-3.07s1.18-1.94,1.65-2.8.83-1.53,1.08-2l1.55-3.76a6.92,6.92,0,0,0-4,.89,16,16,0,0,0-3.69,2.85,22.71,22.71,0,0,0-3,3.92A25.89,25.89,0,0,0,171,83.31a9.83,9.83,0,0,0-.78,3.31C170.17,87.56,170.47,88.11,171.1,88.27Z" transform="translate(-12.92 -16.37)"/><path class="cls-2" d="M206.25,69A2,2,0,0,1,208,67.8a4.82,4.82,0,0,1,2.49.56,5.5,5.5,0,0,1,2,1.79,2.84,2.84,0,0,1,.47,2.42A11.89,11.89,0,0,1,212,74.9c-.55,1-1.16,2.06-1.84,3.21s-1.36,2.34-2.07,3.53-1.29,2.26-1.76,3.2a9.39,9.39,0,0,0-.87,2.28c-.11.58.07.85.54.82a3.79,3.79,0,0,0,2.09-.92,10.62,10.62,0,0,0,1.88-2,19.82,19.82,0,0,0,1.58-2.49c.47-.87.86-1.66,1.17-2.35a3.08,3.08,0,0,1,1.11-1.41,1.34,1.34,0,0,1,1.15-.19,1.23,1.23,0,0,1,.71.9,3.13,3.13,0,0,1-.29,1.88A27.19,27.19,0,0,1,214,84.22a20.05,20.05,0,0,1-2.21,3.25,13.79,13.79,0,0,1-3,2.65,6.48,6.48,0,0,1-3.65,1.11,3.21,3.21,0,0,1-1.85-.5,3,3,0,0,1-1.11-1.34,6.32,6.32,0,0,1-.47-2,17.78,17.78,0,0,1,0-2.53,25.52,25.52,0,0,1-1.76,2.7,11.69,11.69,0,0,1-2.07,2.18,7.81,7.81,0,0,1-2.32,1.34,4.48,4.48,0,0,1-2.54.17,3.84,3.84,0,0,1-2.52-1.48,5.91,5.91,0,0,1-1-2.87A14,14,0,0,1,189.8,83,36.74,36.74,0,0,1,191,78.33a52.43,52.43,0,0,1,1.92-5c.76-1.69,1.55-3.35,2.4-5a1.88,1.88,0,0,1,1.15-1.06,2.68,2.68,0,0,1,1.51,0,4.88,4.88,0,0,1,1.55.85,6.61,6.61,0,0,1,1.29,1.36,4.31,4.31,0,0,1,.68,1.58,2.24,2.24,0,0,1-.16,1.48c-.57,1-1.18,2.06-1.84,3.17s-1.3,2.22-1.92,3.31-1.22,2.16-1.77,3.17-1,1.93-1.31,2.73a6.43,6.43,0,0,0-.54,2c0,.55.15.89.56,1a2,2,0,0,0,1.69-.23A7.28,7.28,0,0,0,198,86.25a18.68,18.68,0,0,0,1.74-2.45c.56-.94,1.1-1.89,1.6-2.84s.94-1.88,1.34-2.77.71-1.66,1-2.28c.5-1.57,1-3,1.48-4.21S206,69.58,206.25,69Z" transform="translate(-12.92 -16.37)"/><path class="cls-2" d="M225.57,81.31a13.72,13.72,0,0,1-4,.85,13.33,13.33,0,0,1-2.89-.19,15.05,15.05,0,0,0-.61,2.42,5,5,0,0,0,0,2,2.45,2.45,0,0,0,.82,1.36,2.71,2.71,0,0,0,1.74.5,11,11,0,0,0,4.47-.87,13.67,13.67,0,0,0,3.43-2.14A14,14,0,0,0,231,82.6a13.88,13.88,0,0,0,1.36-2.42,3,3,0,0,1,1.1-1.41,1.35,1.35,0,0,1,1.15-.19,1.21,1.21,0,0,1,.71.9,3.19,3.19,0,0,1-.28,1.88,13.3,13.3,0,0,1-1.58,2.86,16.81,16.81,0,0,1-7.14,5.88,13.16,13.16,0,0,1-5.43,1.08,7.7,7.7,0,0,1-8.18-6.2,12.93,12.93,0,0,1,.1-5.76,16.38,16.38,0,0,1,2.58-5.76A15.54,15.54,0,0,1,220.24,69a13.42,13.42,0,0,1,6.93-1.76,7.39,7.39,0,0,1,4,.87,3.93,3.93,0,0,1,1.76,2.23,5.67,5.67,0,0,1,0,3,10.19,10.19,0,0,1-1.49,3.22,13.86,13.86,0,0,1-2.56,2.82A10.23,10.23,0,0,1,225.57,81.31Zm-1-2.49a8.11,8.11,0,0,0,3.05-2.09,8.94,8.94,0,0,0,1.81-2.8,4.38,4.38,0,0,0,.31-2.47,1.28,1.28,0,0,0-1.41-1,3.77,3.77,0,0,0-2.07.77,13.5,13.5,0,0,0-2.28,2,23.94,23.94,0,0,0-2.21,2.86,31.09,31.09,0,0,0-1.9,3.29,9.3,9.3,0,0,0,2.14.05A9.1,9.1,0,0,0,224.54,78.82Z" transform="translate(-12.92 -16.37)"/><path class="cls-2" d="M232.34,80.18q1-2,2.23-4t2.42-4q1.23-1.95,2.38-3.81c.76-1.24,1.48-2.42,2.13-3.55a1.45,1.45,0,0,1,1.65-.89,3.76,3.76,0,0,1,1.83,1.1,6.36,6.36,0,0,1,1.32,2,2.08,2.08,0,0,1,.09,1.81,1.81,1.81,0,0,0-.12,1,7,7,0,0,0,.31,1.31c.16.49.34,1,.56,1.6s.43,1.17.61,1.76a13.74,13.74,0,0,1,.71,6.18A13.49,13.49,0,0,1,246.67,86,12,12,0,0,0,249,83.59a26,26,0,0,0,2.09-3.41,3.26,3.26,0,0,1,1.2-1.36,1.34,1.34,0,0,1,1.2-.16,1.17,1.17,0,0,1,.68.89,2.78,2.78,0,0,1-.4,1.81,18.49,18.49,0,0,1-2.58,3.8,19.21,19.21,0,0,1-3.65,3.25,16.65,16.65,0,0,1-4.46,2.18,13.17,13.17,0,0,1-5.05.59l-.15,0a.24.24,0,0,1-.14,0,5.33,5.33,0,0,1-3.38-1.06,6.76,6.76,0,0,1-2.07-2.61,8.46,8.46,0,0,1-.75-3.34,8.24,8.24,0,0,1,.52-3.24A3.34,3.34,0,0,1,232.34,80.18Zm5.12,3.67a2,2,0,0,0-1.64.66,2.51,2.51,0,0,0-.57,1.45,2.28,2.28,0,0,0,.4,1.46,1.43,1.43,0,0,0,1.25.66,3.66,3.66,0,0,0,2.25-.78,6.35,6.35,0,0,0,1.74-2A10.39,10.39,0,0,0,242,82.34a12.74,12.74,0,0,0-.4-6.76,9.55,9.55,0,0,0-1.69-3.06q-.57.9-1.08,1.83c-.35.54-.71,1.15-1.08,1.84s-.77,1.39-1.18,2.11a3.18,3.18,0,0,1,1.81,1.13,4.39,4.39,0,0,1,.94,1.88,2.49,2.49,0,0,1-.21,1.76A1.66,1.66,0,0,1,237.46,83.85Z" transform="translate(-12.92 -16.37)"/><path class="cls-2" d="M266.13,74.5a1.8,1.8,0,0,1,1.51-1,4.48,4.48,0,0,1,2.18.28,4.16,4.16,0,0,1,1.81,1.32,2.36,2.36,0,0,1,.38,2.16,10.3,10.3,0,0,1-.85,2c-.41.77-.85,1.55-1.34,2.35l-1.43,2.37A23,23,0,0,0,267.26,86a3.38,3.38,0,0,0-.4,1.44c0,.34.26.5.73.47a3.79,3.79,0,0,0,2.09-.92,11.39,11.39,0,0,0,1.9-2,17.9,17.9,0,0,0,1.6-2.49,24.21,24.21,0,0,0,1.13-2.35,3,3,0,0,1,1.1-1.41,1.36,1.36,0,0,1,1.16-.19,1.2,1.2,0,0,1,.7.9,3.11,3.11,0,0,1-.28,1.88,21.3,21.3,0,0,1-1.34,2.86,20.05,20.05,0,0,1-2.21,3.25,13.55,13.55,0,0,1-3,2.65,6.44,6.44,0,0,1-3.64,1.11,2.9,2.9,0,0,1-2.8-1.44,7.3,7.3,0,0,1-.77-3.54,14.19,14.19,0,0,1-3.08,3.47,5.46,5.46,0,0,1-4,1.23,5.92,5.92,0,0,1-3.76-1.51,6.38,6.38,0,0,1-1.8-3.29,10.7,10.7,0,0,1,0-4.37A16.42,16.42,0,0,1,252.34,77a19.46,19.46,0,0,1,3.24-4.41,15.72,15.72,0,0,1,4.68-3.34,17.21,17.21,0,0,1,6-1.55,18.39,18.39,0,0,1,7.17.94,2.54,2.54,0,0,1,1.34.91,1.75,1.75,0,0,1,.37,1.2,1.16,1.16,0,0,1-.7.9,2.91,2.91,0,0,1-1.91,0,9.83,9.83,0,0,0-4.13-.14,11.86,11.86,0,0,0-3.69,1.36,14.17,14.17,0,0,0-3.13,2.45,22.77,22.77,0,0,0-2.49,3,18,18,0,0,0-1.74,3.2,13.63,13.63,0,0,0-.87,2.94,5.25,5.25,0,0,0,0,2.23,1.3,1.3,0,0,0,1.1,1,2.3,2.3,0,0,0,1.93-.56,9.92,9.92,0,0,0,1.84-2,20.14,20.14,0,0,0,1.66-2.89c.52-1.08,1-2.12,1.39-3.13s.57-1.92.87-2.77A15,15,0,0,1,266.13,74.5Z" transform="translate(-12.92 -16.37)"/><path class="cls-3" d="M162.77,97.19c-93.52-.18-53.27-.17-146.7,0H162.73Z" transform="translate(-12.92 -16.37)"/><path class="cls-3" d="M186.62,98.23h89.45c-64-.21-25.78-.22-89.42,0Z" transform="translate(-12.92 -16.37)"/><path class="cls-4" d="M16,24a9,9,0,0,1,6.6-2.59,8.34,8.34,0,0,1,4.43,1.09,3.15,3.15,0,0,1,1.79,2.68,2.4,2.4,0,0,1-1,2,3.87,3.87,0,0,1-2.47.79q-.46-3.64-3-3.64a3.46,3.46,0,0,0-2.94,1.53A7,7,0,0,0,18.34,30a6.53,6.53,0,0,0,1.28,4.32,4.26,4.26,0,0,0,3.45,1.51,6.58,6.58,0,0,0,3.06-.74,5.73,5.73,0,0,0,2.22-2,.66.66,0,0,1,.34.18,1.52,1.52,0,0,1,.38.55,2.12,2.12,0,0,1,.19.95,3.88,3.88,0,0,1-2,3.27,9,9,0,0,1-5.14,1.33q-4.28,0-6.5-2.32a8.58,8.58,0,0,1-2.22-6.17A9.33,9.33,0,0,1,16,24Z" transform="translate(-12.92 -16.37)"/><path class="cls-4" d="M30.68,37.8A4.86,4.86,0,0,1,31,36.45L34.69,26a15.38,15.38,0,0,0,.93-3.28A3.73,3.73,0,0,1,37.24,22a9.46,9.46,0,0,1,2.3-.28q3,0,3.45,1.44l4,12.79a4.87,4.87,0,0,0,1.15,2.16,2.46,2.46,0,0,1-1.27.79,5.94,5.94,0,0,1-1.92.29,2.81,2.81,0,0,1-1.86-.48,2.71,2.71,0,0,1-.78-1.29l-.74-2.5H35.1l-.32,1a11.37,11.37,0,0,0-.5,2.66c0,.16,0,.3,0,.41a5.47,5.47,0,0,1-1.48.17C31.39,39.14,30.68,38.69,30.68,37.8ZM36,32.23h4.75l-2.3-7.68Z" transform="translate(-12.92 -16.37)"/><path class="cls-4" d="M52.26,21.86a22.15,22.15,0,0,1,4.49-.43,11.65,11.65,0,0,1,5.68,1.14,3.55,3.55,0,0,1,2,3.25,3.44,3.44,0,0,1-1,2.44,6.64,6.64,0,0,1-2.83,1.64q4.42.72,4.42,4.08a4.51,4.51,0,0,1-2.3,4,11.64,11.64,0,0,1-6.29,1.46,19.92,19.92,0,0,1-2.38-.14,15.73,15.73,0,0,1-2.15-.43A4,4,0,0,1,50.31,38a1.65,1.65,0,0,1-.6-1.26V25.46a5.75,5.75,0,0,0-.36-2.71A11.39,11.39,0,0,1,52.26,21.86Zm2.35,2.54v5.11q5.4-.35,5.4-3c0-1.49-1.13-2.23-3.39-2.23A18.7,18.7,0,0,0,54.61,24.4Zm2,12.17a4.35,4.35,0,0,0,2.58-.66A2.19,2.19,0,0,0,60.13,34c0-1.61-1.13-2.42-3.38-2.42a19.35,19.35,0,0,0-2.14.1v4.67A8,8,0,0,0,56.62,36.57Z" transform="translate(-12.92 -16.37)"/><path class="cls-4" d="M66.46,37.8a5,5,0,0,1,.32-1.35L70.47,26a16.23,16.23,0,0,0,.94-3.28A3.73,3.73,0,0,1,73,22a9.38,9.38,0,0,1,2.29-.28c2,0,3.17.48,3.46,1.44l4,12.79a4.77,4.77,0,0,0,1.15,2.16,2.5,2.5,0,0,1-1.27.79,6,6,0,0,1-1.92.29,2.81,2.81,0,0,1-1.86-.48,2.71,2.71,0,0,1-.78-1.29l-.75-2.5H70.88l-.31,1a11,11,0,0,0-.51,2.66,2.37,2.37,0,0,0,0,.41,5.55,5.55,0,0,1-1.49.17C67.18,39.14,66.46,38.69,66.46,37.8Zm5.29-5.57H76.5l-2.31-7.68Z" transform="translate(-12.92 -16.37)"/><path class="cls-4" d="M85.21,22.7A2.84,2.84,0,0,1,86.39,22a4.64,4.64,0,0,1,1.7-.34,3.81,3.81,0,0,1,1.84.37,4.57,4.57,0,0,1,1.28,1.26l5.86,8.59V25.15a5.71,5.71,0,0,0-.39-2.62,3.24,3.24,0,0,1,1-.58,4,4,0,0,1,1.35-.26,1.64,1.64,0,0,1,1.2.35,1.75,1.75,0,0,1,.34,1.21l0,12a20.41,20.41,0,0,0,.27,3.09,2.13,2.13,0,0,1-1,.54,4.82,4.82,0,0,1-1.49.23,3.4,3.4,0,0,1-3-1.34L89.12,28.7v7.75a7.51,7.51,0,0,0,.27,2.19,2.08,2.08,0,0,1-.76.35,3.67,3.67,0,0,1-1.12.17A2.36,2.36,0,0,1,86,38.79a1.79,1.79,0,0,1-.42-1.4V25.84A7.74,7.74,0,0,0,85.21,22.7ZM89,19.08a1.71,1.71,0,0,1,.58-1.36,2.25,2.25,0,0,1,1.53-.52,5.54,5.54,0,0,1,2,.57,5.78,5.78,0,0,0,1.91.56,1.49,1.49,0,0,0,1.52-1.13,1.82,1.82,0,0,1,.69,1.49,1.73,1.73,0,0,1-.58,1.36,2.21,2.21,0,0,1-1.53.51,5.42,5.42,0,0,1-2-.56,5.46,5.46,0,0,0-1.9-.57,1.42,1.42,0,0,0-1,.37,1.74,1.74,0,0,0-.49.76A1.71,1.71,0,0,1,89,19.08Z" transform="translate(-12.92 -16.37)"/><path class="cls-4" d="M103,37.8a4.86,4.86,0,0,1,.31-1.35L107,26a15.58,15.58,0,0,0,.94-3.28,3.73,3.73,0,0,1,1.62-.71,9.38,9.38,0,0,1,2.29-.28c2,0,3.17.48,3.46,1.44l4,12.79a4.77,4.77,0,0,0,1.15,2.16,2.5,2.5,0,0,1-1.27.79,5.94,5.94,0,0,1-1.92.29,2.81,2.81,0,0,1-1.86-.48,2.71,2.71,0,0,1-.78-1.29l-.75-2.5h-6.43l-.31,1a10.86,10.86,0,0,0-.5,2.66,2.49,2.49,0,0,0,0,.41,5.5,5.5,0,0,1-1.49.17C103.73,39.14,103,38.69,103,37.8Zm5.28-5.57h4.75l-2.31-7.68Z" transform="translate(-12.92 -16.37)"/><path class="cls-4" d="M121.93,34.41a2.81,2.81,0,0,1,1.49-.74,3.82,3.82,0,0,0,1.93,2.23,6.58,6.58,0,0,0,3,.7,4.26,4.26,0,0,0,2.11-.46,1.38,1.38,0,0,0,.79-1.25,1,1,0,0,0-.05-.36.86.86,0,0,0-.17-.31,3.2,3.2,0,0,0-.25-.27,3.56,3.56,0,0,0-.36-.25l-.42-.23-.51-.21-.57-.2-.64-.24-.68-.26a21.31,21.31,0,0,1-3.28-1.44,4.43,4.43,0,0,1-2.38-4,5,5,0,0,1,2-4.1,8.67,8.67,0,0,1,5.53-1.61,9.27,9.27,0,0,1,4.17.85,2.55,2.55,0,0,1,1.69,2.22c0,1-.66,1.64-2,1.95a3.94,3.94,0,0,0-1.77-1.61,5.74,5.74,0,0,0-2.65-.62,3.11,3.11,0,0,0-1.78.45,1.36,1.36,0,0,0-.64,1.15,1.3,1.3,0,0,0,.67,1.15,16.2,16.2,0,0,0,2.49,1.16,5.38,5.38,0,0,1,.63.24A21.6,21.6,0,0,1,133.74,30a4.29,4.29,0,0,1,2.09,3.67,5,5,0,0,1-2.09,4.2,9.53,9.53,0,0,1-5.81,1.56,10.74,10.74,0,0,1-4.78-.93A2.83,2.83,0,0,1,121.28,36,2,2,0,0,1,121.93,34.41Z" transform="translate(-12.92 -16.37)"/><path class="cls-5" d="M219.24,29.21a74.76,74.76,0,0,1,10.25,6.25c1.93,1.28,4,2.44,6,3.62a10.26,10.26,0,0,1,3.13,3.27,3.78,3.78,0,0,0,1.53,1.22c2.33,1,4.72,1.91,7.06,2.92a8,8,0,0,1,1.9,1.25c1.81,1.47,4.11,1.58,6.36,1.9,1.56.22,3.12.46,4.68.71.42.07.84.21,1.26.29a24.12,24.12,0,0,1,11.07,5.27c1,.87,1.54,1.85.75,3.1a6.23,6.23,0,0,0-.44,1c-.64,1.59-.83,1.6-2.47.89-2.76-1.19-5.51-2.43-8.39-3.35a35.31,35.31,0,0,0-7-1.41,13.89,13.89,0,0,1-6.55-2.06,32.45,32.45,0,0,0-8.74-3.78c-2.07-.66-3.12-2.06-4.26-3.6a15.25,15.25,0,0,0-3.85-3.56c-1.94-1.25-4.2-2.11-6.23-3.27-2.49-1.42-4.79-3.12-7.34-4.42-2.77-1.41-5.73-2.54-8.64-3.73a11.5,11.5,0,0,0-2-.35,10.66,10.66,0,0,0-5.72.51c-3.12,1.08-6.35,1.89-9.49,2.92a6.25,6.25,0,0,0-2.59,1.51C187,39,183.7,40.57,180.25,42c-2,.83-4.07,1.59-6,2.53a21.29,21.29,0,0,0-2.77,2,7.61,7.61,0,0,1-1.92,1.2c-2.81.87-4.85,2.74-7.09,4.32a11.65,11.65,0,0,1-8.72,2.24,7.21,7.21,0,0,0-5,1c-.72.47-1.17.43-1.57-.37a29.23,29.23,0,0,0-1.78-2.84c-.42-.66,0-1,.47-1.51,2.23-2.17,5.1-2.39,8.12-2.22a8.47,8.47,0,0,0,5.76-1.63c2.56-1.91,5-3.9,8.26-5,1.65-.57,3-1.74,4.6-2.56,1.15-.6,2.45-1,3.6-1.62,2.38-1.3,4.75-2.62,7-4.07A19.92,19.92,0,0,0,186,31a11.39,11.39,0,0,1,4.3-2.23c1-.34,2-.81,3-1.2,1.67-.65,3.35-1.28,5-1.91a18.44,18.44,0,0,1,3.22-1.14c3.8-.64,7.54-.64,11,1.17,1.31.68,2.62,1.34,3.91,2S218.46,28.86,219.24,29.21Z" transform="translate(-12.92 -16.37)"/></svg>